<?xml version="1.0" encoding="UTF-8" standalone="no" ?>
<!DOCTYPE svg PUBLIC "-//W3C//DTD SVG 1.1//EN" "http://www.w3.org/Graphics/SVG/1.1/DTD/svg11.dtd">
<svg xmlns="http://www.w3.org/2000/svg" xmlns:xlink="http://www.w3.org/1999/xlink" version="1.1" width="1080" height="1080" viewBox="0 0 1080 1080" xml:space="preserve">
<desc>Created with Fabric.js 5.2.4</desc>
<defs>
</defs>
<rect x="0" y="0" width="100%" height="100%" fill="transparent"></rect>
<g transform="matrix(1 0 0 1 540 540)" id="9244f857-8b3e-4f7b-ad71-49b4d9c1868a"  >
</g>
<g transform="matrix(1 0 0 1 540 540)" id="0213ac76-f941-4b28-b5e8-9a193947792c"  >
<rect style="stroke: none; stroke-width: 1; stroke-dasharray: none; stroke-linecap: butt; stroke-dashoffset: 0; stroke-linejoin: miter; stroke-miterlimit: 4; fill: rgb(255,255,255); fill-rule: nonzero; opacity: 1; visibility: hidden;" vector-effect="non-scaling-stroke"  x="-540" y="-540" rx="0" ry="0" width="1080" height="1080" />
</g>
<g transform="matrix(2.15 0 0 2.15 555.13 564.22)"  >
<g style="" vector-effect="non-scaling-stroke"   >
		<g transform="matrix(1 0 0 1 42.64 -82.46)"  >
<path style="stroke: none; stroke-width: 1; stroke-dasharray: none; stroke-linecap: butt; stroke-dashoffset: 0; stroke-linejoin: miter; stroke-miterlimit: 4; fill: rgb(230,230,230); fill-rule: nonzero; opacity: 1;" vector-effect="non-scaling-stroke"  transform=" translate(-256.66, -120.37)" d="M 326.65781 67.37236 L 326.65781 173.37236000000001 C 326.65781 182.74638000000002 319.03182999999996 190.37236000000001 309.65781 190.37236000000001 L 203.65780999999998 190.37236000000001 C 194.28378999999998 190.37236000000001 186.65780999999998 182.74638000000002 186.65780999999998 173.37236000000001 L 186.65780999999998 67.37236 C 186.65780999999998 57.99834 194.28378999999998 50.37236 203.65780999999998 50.37236 L 309.65781 50.37236 C 319.03182999999996 50.37236 326.65781 57.99834 326.65781 67.37236 Z M 309.65781 188.37236000000001 C 317.94208 188.37236000000001 324.65781 181.65663 324.65781 173.37236000000001 L 324.65781 119.93142000000002 C 324.65781 82.61958000000001 294.41058999999996 52.372360000000015 257.09875999999997 52.372360000000015 L 203.65780999999998 52.372360000000015 C 195.37354 52.372360000000015 188.65780999999998 59.088090000000015 188.65780999999998 67.37236000000001 L 188.65780999999998 173.37236000000001 C 188.65780999999998 181.65663 195.37354 188.37236000000001 203.65780999999998 188.37236000000001 L 309.65781 188.37236000000001 Z" stroke-linecap="round" />
</g>
		<g transform="matrix(1 0 0 1 -9.9 -62.12)"  >
<path style="stroke: none; stroke-width: 1; stroke-dasharray: none; stroke-linecap: butt; stroke-dashoffset: 0; stroke-linejoin: miter; stroke-miterlimit: 4; fill: rgb(255,182,182); fill-rule: nonzero; opacity: 1;" vector-effect="non-scaling-stroke"  transform=" translate(-204.11, -140.71)" d="M 213.46512 148.67319 C 219.10706000000002 149.58718000000002 224.15189 147.41693 224.73296000000002 143.8263 C 225.31403000000003 140.23567 221.21164000000002 136.585 215.56759000000002 135.67145 C 213.31802000000002 135.27561 211.00637000000003 135.42423 208.82603000000003 136.10492 L 184.87204000000003 132.53422999999998 L 183.43602 143.81086 L 207.20287000000002 146.13370999999998 C 209.05753 147.46818 211.20485000000002 148.33899999999997 213.46512 148.67322 L 213.46514000000002 148.67319999999998 Z" stroke-linecap="round" />
</g>
		<g transform="matrix(1 0 0 1 -54.29 -93.94)"  >
<path style="stroke: none; stroke-width: 1; stroke-dasharray: none; stroke-linecap: butt; stroke-dashoffset: 0; stroke-linejoin: miter; stroke-miterlimit: 4; fill: rgb(47,46,65); fill-rule: nonzero; opacity: 1;" vector-effect="non-scaling-stroke"  transform=" translate(-159.73, -108.89)" d="M 127.86174 65.6504 L 114.78008 72.90096 C 114.78008 72.90096 132.69836 127.01115999999999 138.77206 136.23667 C 144.84576 145.46218000000002 203.86720000000003 152.13077 203.86720000000003 152.13077 L 204.68480000000002 132.29817000000003 L 166.76616 115.20499000000002 L 127.86175000000001 65.65038000000003 L 127.86175000000001 65.65040000000003 Z" stroke-linecap="round" />
</g>
		<g transform="matrix(1 0 0 1 -95.89 166.92)"  >
<polygon style="stroke: none; stroke-width: 1; stroke-dasharray: none; stroke-linecap: butt; stroke-dashoffset: 0; stroke-linejoin: miter; stroke-miterlimit: 4; fill: rgb(255,182,182); fill-rule: nonzero; opacity: 1;" vector-effect="non-scaling-stroke"  points="-8.53,26.38 5.05,26.38 8.54,-26.38 -8.54,-26.03 -8.53,26.38 " />
</g>
		<g transform="matrix(1 0 0 1 -82.4 189.55)"  >
<path style="stroke: none; stroke-width: 1; stroke-dasharray: none; stroke-linecap: butt; stroke-dashoffset: 0; stroke-linejoin: miter; stroke-miterlimit: 4; fill: rgb(47,46,65); fill-rule: nonzero; opacity: 1;" vector-effect="non-scaling-stroke"  transform=" translate(-131.62, -392.38)" d="M 156.14127 395.82145 L 156.14127 395.82145 C 156.56434 396.53397 156.78755999999998 398.83366 156.78755999999998 399.66227000000003 L 156.78755999999998 399.66227000000003 C 156.78755999999998 402.20918000000006 154.72292 404.2739 152.17594 404.2739 L 110.09736 404.2739 C 108.35987999999999 404.2739 106.95129 402.86539000000005 106.95129 401.12784000000005 L 106.95129 399.37598 C 106.95129 399.37598 104.8697 394.11072 109.15532 387.62098000000003 C 109.15532 387.62098000000003 114.48177 392.70255000000003 122.44086 384.74345000000005 L 124.78792 380.49156000000005 L 141.77743 392.91682000000003 L 151.19447000000002 394.07597000000004 C 153.25473000000002 394.32954000000007 155.08133000000004 394.03663000000006 156.14109000000002 395.82148000000007 L 156.14126000000002 395.82148000000007 L 156.14128000000002 395.8214500000001 Z" stroke-linecap="round" />
</g>
		<g transform="matrix(1 0 0 1 -109.4 167.1)"  >
<polygon style="stroke: none; stroke-width: 1; stroke-dasharray: none; stroke-linecap: butt; stroke-dashoffset: 0; stroke-linejoin: miter; stroke-miterlimit: 4; fill: rgb(255,182,182); fill-rule: nonzero; opacity: 1;" vector-effect="non-scaling-stroke"  points="-10.02,26.21 3.56,26.2 10.03,-26.21 -10.03,-26.2 -10.02,26.21 " />
</g>
		<g transform="matrix(1 0 0 1 -97.4 189.55)"  >
<path style="stroke: none; stroke-width: 1; stroke-dasharray: none; stroke-linecap: butt; stroke-dashoffset: 0; stroke-linejoin: miter; stroke-miterlimit: 4; fill: rgb(47,46,65); fill-rule: nonzero; opacity: 1;" vector-effect="non-scaling-stroke"  transform=" translate(-116.62, -392.38)" d="M 141.14127 395.82145 L 141.14127 395.82145 C 141.56434 396.53397 141.78755999999998 398.83366 141.78755999999998 399.66227000000003 L 141.78755999999998 399.66227000000003 C 141.78755999999998 402.20918000000006 139.72292 404.2739 137.17594 404.2739 L 95.09736 404.2739 C 93.35987999999999 404.2739 91.95129 402.86539000000005 91.95129 401.12784000000005 L 91.95129 399.37598 C 91.95129 399.37598 89.8697 394.11072 94.15532 387.62098000000003 C 94.15532 387.62098000000003 99.48177 392.70255000000003 107.44086 384.74345000000005 L 109.78792 380.49156000000005 L 126.77743 392.91682000000003 L 136.19447 394.07597000000004 C 138.25473 394.32954000000007 140.08133 394.03663000000006 141.14109 395.82148000000007 L 141.14126 395.82148000000007 L 141.14128 395.8214500000001 Z" stroke-linecap="round" />
</g>
		<g transform="matrix(1 0 0 1 -84.47 -172.62)"  >
<circle style="stroke: none; stroke-width: 1; stroke-dasharray: none; stroke-linecap: butt; stroke-dashoffset: 0; stroke-linejoin: miter; stroke-miterlimit: 4; fill: rgb(255,182,182); fill-rule: nonzero; opacity: 1;" vector-effect="non-scaling-stroke"  cx="0" cy="0" r="22.51969" />
</g>
		<g transform="matrix(1 0 0 1 -92.16 63.3)"  >
<path style="stroke: none; stroke-width: 1; stroke-dasharray: none; stroke-linecap: butt; stroke-dashoffset: 0; stroke-linejoin: miter; stroke-miterlimit: 4; fill: rgb(47,46,65); fill-rule: nonzero; opacity: 1;" vector-effect="non-scaling-stroke"  transform=" translate(-121.85, -266.13)" d="M 155.15781 169.87236 L 93.48852000000002 162.20306 C 93.48852000000002 162.20306 88.15781000000003 201.87234 96.15781000000003 217.87234 L 94.15781000000003 265.87234 C 94.15781000000003 265.87234 83.33942000000002 356.25817 91.74861000000003 370.06524 L 127.65781000000003 369.37234 L 129.15781000000004 283.87234 L 155.15781000000004 169.87234 L 155.15781000000004 169.87236000000001 Z" stroke-linecap="round" />
</g>
		<g transform="matrix(1 0 0 1 -92.24 -90.46)"  >
<path style="stroke: none; stroke-width: 1; stroke-dasharray: none; stroke-linecap: butt; stroke-dashoffset: 0; stroke-linejoin: miter; stroke-miterlimit: 4; fill: rgb(0,176,255); fill-rule: nonzero; opacity: 1;" vector-effect="non-scaling-stroke"  transform=" translate(-121.78, -112.37)" d="M 136.65781 66.37236 L 113.65781000000001 50.37236 L 108.99639000000002 58.37236 C 108.99639000000002 58.37236 90.65781000000001 93.37236 88.65781000000001 104.37236 C 86.65781000000001 115.37236 94.65781000000001 163.37236000000001 94.65781000000001 163.37236000000001 L 152.65781 174.37236000000001 C 152.65781 174.37236000000001 156.65781 154.37236000000001 154.65781 150.37236000000001 C 152.65781 146.37236000000001 137.15781 75.87236000000001 137.15781 75.87236000000001 L 136.65781 66.37236000000001 Z" stroke-linecap="round" />
</g>
		<g transform="matrix(1 0 0 1 -103.67 -71.84)"  >
<path style="stroke: none; stroke-width: 1; stroke-dasharray: none; stroke-linecap: butt; stroke-dashoffset: 0; stroke-linejoin: miter; stroke-miterlimit: 4; fill: rgb(47,46,65); fill-rule: nonzero; opacity: 1;" vector-effect="non-scaling-stroke"  transform=" translate(-110.35, -130.98)" d="M 130.15781 76.87236 L 110.15781000000001 54.09677 C 110.15781000000001 54.09677 81.15781000000001 85.87236 82.15781000000001 99.87236 C 83.15781000000001 113.87236 77.15781000000001 207.87236000000001 77.15781000000001 207.87236000000001 L 123.00351 207.87236000000001 C 123.00351 207.87236000000001 140.15781 167.87236000000001 143.15781 146.87236000000001 C 146.15781 125.87236000000001 130.15781 76.87236000000001 130.15781 76.87236000000001 Z" stroke-linecap="round" />
</g>
		<g transform="matrix(1 0 0 1 -66.61 -60.46)"  >
<path style="stroke: none; stroke-width: 1; stroke-dasharray: none; stroke-linecap: butt; stroke-dashoffset: 0; stroke-linejoin: miter; stroke-miterlimit: 4; fill: rgb(47,46,65); fill-rule: nonzero; opacity: 1;" vector-effect="non-scaling-stroke"  transform=" translate(-147.41, -142.37)" d="M 137.15781 75.87236 C 137.15781 75.87236 157.65781 142.37236000000001 157.65781 148.37236000000001 C 157.65781 154.37236000000001 153.15781 208.87236000000001 153.15781 208.87236000000001 L 144.9019 208.87236000000001 L 150.65781 145.37236000000001 L 137.15781 75.87236000000001 Z" stroke-linecap="round" />
</g>
		<g transform="matrix(1 0 0 1 -88.87 -176.39)"  >
<path style="stroke: none; stroke-width: 1; stroke-dasharray: none; stroke-linecap: butt; stroke-dashoffset: 0; stroke-linejoin: miter; stroke-miterlimit: 4; fill: rgb(47,46,65); fill-rule: nonzero; opacity: 1;" vector-effect="non-scaling-stroke"  transform=" translate(-125.15, -26.44)" d="M 138.15781 17.87236 L 140.15781 25.87236 L 137.15781 37.87236 L 132.5712 37.87236 C 132.5712 37.87236 124.15781000000001 25.87236 121.15781000000001 38.87236 L 121.15781000000001 46.11252 L 114.15781000000001 52.87236 C 114.15781000000001 52.87236 112.15781000000001 47.87236 106.15781000000001 43.87236 C 100.15781000000001 39.87236 93.15781000000001 16.87236 111.15781000000001 11.87236 C 111.15781000000001 11.87236 124.46763000000001 -3.03463 137.10263 0.5590700000000002 C 138.43619 0.9383700000000001 137.35573 3.5416000000000003 138.65781 4.3723600000000005 C 139.43756000000002 4.86986 142.61522000000002 3.4375100000000005 143.37427000000002 4.11943 C 144.13115000000002 4.7994200000000005 143.92855000000003 6.492240000000001 144.65781 7.3723600000000005 C 146.26316 9.30978 148.74057000000002 10.83541 150.15781 13.87236 C 150.15781 13.87236 152.15781 14.87236 148.15781 15.87236 C 144.15781 16.87236 138.15781 17.87236 138.15781 17.87236 Z" stroke-linecap="round" />
</g>
		<g transform="matrix(1 0 0 1 -93.74 -20.69)"  >
<path style="stroke: none; stroke-width: 1; stroke-dasharray: none; stroke-linecap: butt; stroke-dashoffset: 0; stroke-linejoin: miter; stroke-miterlimit: 4; fill: rgb(255,182,182); fill-rule: nonzero; opacity: 1;" vector-effect="non-scaling-stroke"  transform=" translate(-120.28, -182.14)" d="M 123.81856 195.15035 C 127.66105 199.38143 132.95882 200.82844 135.65111000000002 198.38262 C 138.34340000000003 195.9368 137.41048 190.52509 133.56606000000002 186.29302 C 132.05356000000003 184.58143 130.15316 183.2569 128.02384 182.43033000000003 L 111.51667 164.70870000000002 L 103.36554000000001 172.63228 L 120.50408000000002 189.26145 C 121.12275000000001 191.46096 122.25929000000002 193.48028 123.81856000000002 195.15035 Z" stroke-linecap="round" />
</g>
		<g transform="matrix(1 0 0 1 -113.87 -69.7)"  >
<path style="stroke: none; stroke-width: 1; stroke-dasharray: none; stroke-linecap: butt; stroke-dashoffset: 0; stroke-linejoin: miter; stroke-miterlimit: 4; fill: rgb(47,46,65); fill-rule: nonzero; opacity: 1;" vector-effect="non-scaling-stroke"  transform=" translate(-100.15, -133.13)" d="M 108.61844 76.87236 L 93.86937 74.38935000000001 C 93.86937 74.38935000000001 74.15781000000001 127.87236000000001 73.15781000000001 138.87236000000001 C 72.15781000000001 149.87236000000001 114.15781000000001 191.87236000000001 114.15781000000001 191.87236000000001 L 127.15781000000001 176.87236000000001 L 108.15781000000001 139.87236000000001 L 108.61844 76.87236000000001 Z" stroke-linecap="round" />
</g>
		<g transform="matrix(1 0 0 1 0 201.99)"  >
<path style="stroke: none; stroke-width: 1; stroke-dasharray: none; stroke-linecap: butt; stroke-dashoffset: 0; stroke-linejoin: miter; stroke-miterlimit: 4; fill: rgb(230,230,230); fill-rule: nonzero; opacity: 1;" vector-effect="non-scaling-stroke"  transform=" translate(-214.02, -404.82)" d="M 428.04004 404.81614 L 428.04004 404.81614 C 428.04004 405.28007 427.66393999999997 405.65617000000003 427.20000999999996 405.65617000000003 L 0.84003 405.65617000000003 C 0.37610000000000005 405.65617000000003 0 405.28007 0 404.81614 L 0 404.81614 C 0 404.35221 0.37609 403.97611 0.84003 403.97611 L 427.20001 403.97611 C 427.66394 403.97611 428.04004000000003 404.35221 428.04004000000003 404.81614 Z" stroke-linecap="round" />
</g>
		<g transform="matrix(1 0 0 1 2.7 -94.88)"  >
<path style="stroke: none; stroke-width: 1; stroke-dasharray: none; stroke-linecap: butt; stroke-dashoffset: 0; stroke-linejoin: miter; stroke-miterlimit: 4; fill: rgb(255,104,132); fill-rule: nonzero; opacity: 1;" vector-effect="non-scaling-stroke"  transform=" translate(-216.71, -107.96)" d="M 235.70119 111.55896 C 235.63757999999999 117.3576 225.68286 123.44979 216.57071 123.34984 C 207.45855999999998 123.24989000000001 197.6618 114.94093 197.72539999999998 109.14228 C 197.78901 103.34364 199.42395999999997 92.46379 208.53610999999998 92.56374 C 217.64826 92.66368999999999 235.76477999999997 105.76030999999999 235.70116 111.55895 L 235.70118 111.55895 Z" stroke-linecap="round" />
</g>
		<g transform="matrix(1 0 0 1 3.29 -79.79)"  >
<path style="stroke: none; stroke-width: 1; stroke-dasharray: none; stroke-linecap: butt; stroke-dashoffset: 0; stroke-linejoin: miter; stroke-miterlimit: 4; fill: rgb(242,242,242); fill-rule: nonzero; opacity: 0.28;" vector-effect="non-scaling-stroke"  transform=" translate(-217.3, -123.04)" d="M 219.21487 159.69681 L 221.67019 126.15440000000001 C 221.67019 126.15440000000001 254.74499 119.51678000000001 233.67953 79.78333 L 205.70315 77.47634000000001 C 205.70315 77.47634000000001 175.82652 111.6507 211.16534 126.53920000000001 L 212.28509 159.67731 C 204.55483 160.05995000000001 198.7781 161.77617 198.75476 163.90532000000002 C 198.72749000000002 166.39046000000002 206.53995 168.49098 216.20434 168.59699 C 225.86873 168.703 233.7254 166.77434 233.75263 164.2892 C 233.77707 162.05978 227.48581000000001 160.14484 219.21485 159.69679 L 219.21487000000002 159.69681 Z" stroke-linecap="round" />
</g>
		<g transform="matrix(1 0 0 1 3.28 -79.81)"  >
<path style="stroke: none; stroke-width: 1; stroke-dasharray: none; stroke-linecap: butt; stroke-dashoffset: 0; stroke-linejoin: miter; stroke-miterlimit: 4; fill: rgb(63,61,86); fill-rule: nonzero; opacity: 1;" vector-effect="non-scaling-stroke"  transform=" translate(-217.3, -123.02)" d="M 201.72502 167.527 C 199.07237 166.55764 197.73907 165.33947999999998 197.75493 163.89484 C 197.79723 160.03627 207.55271 158.99424 211.25267 158.73785999999998 L 210.18738 127.20774999999998 C 200.81748 123.12033999999997 195.19495999999998 117.26548999999997 193.47109999999998 109.79829999999998 C 189.88796999999997 94.27273999999998 204.33359 77.52401999999998 204.95019999999997 76.81826999999998 L 205.28236999999996 76.43850999999998 L 234.30732999999995 78.83134999999999 L 234.56319999999994 79.31474999999999 C 241.98726999999994 93.31760999999999 243.63395999999995 104.88534999999999 239.45732999999993 113.69706 C 234.99811999999991 123.10419999999999 225.38776999999993 126.23299 222.61403999999993 126.95779999999999 L 220.28595999999993 158.76169 C 227.20213999999993 159.25122 234.78964999999994 160.95095999999998 234.75267999999994 164.29990999999998 C 234.71097999999995 168.07862999999998 225.10249999999994 169.69427 216.19321999999994 169.59721 C 211.43792999999994 169.54487 206.96073999999993 169.01605999999998 203.58551999999995 168.10913 C 202.90672999999995 167.92659 202.28638999999995 167.73211999999998 201.72504999999995 167.52697999999998 L 201.72501999999994 167.527 Z M 206.13692 78.51574 C 204.03029 81.07822999999999 192.34787 96.05545 195.42134000000001 109.35378 C 197.02983 116.31301 202.45755000000003 121.78476 211.55362000000002 125.61718 L 212.14323000000002 125.86591 L 213.31733000000003 160.62774000000002 L 212.33428000000004 160.67606 C 203.39503000000005 161.1191 206.87949000000003 163.45681000000002 206.87089000000003 164.22723000000002 C 206.86756000000003 164.51091000000002 200.54853000000003 165.21827000000002 204.10465000000002 166.17780000000002 C 207.32210000000003 167.04268000000002 211.62330000000003 167.54668 216.21523000000002 167.59652000000003 C 227.10065000000003 167.71600000000004 232.74132000000003 165.32414000000003 232.75287000000003 164.27824000000004 C 232.76183000000003 163.44142000000005 228.86453000000003 161.22183000000004 219.16091000000003 160.69516000000004 L 218.14329000000004 160.64040000000006 L 220.72850000000003 125.32470000000006 L 221.47272000000004 125.17453000000006 C 221.58695000000003 125.15077000000007 232.97068000000004 122.73865000000006 237.65854000000004 112.82242000000006 C 241.49223000000003 104.71301000000007 239.94200000000004 93.91977000000006 233.05078000000003 80.73494000000007 L 214.61608000000004 83.78607000000007 C 210.86751000000004 84.40649000000006 207.23990000000003 82.15171000000007 206.13692000000003 78.51576000000007 L 206.13692000000003 78.51576000000007 Z" stroke-linecap="round" />
</g>
		<g transform="matrix(1 0 0 1 110.28 -93)"  >
<path style="stroke: none; stroke-width: 1; stroke-dasharray: none; stroke-linecap: butt; stroke-dashoffset: 0; stroke-linejoin: miter; stroke-miterlimit: 4; fill: rgb(63,61,86); fill-rule: nonzero; opacity: 1;" vector-effect="non-scaling-stroke"  transform=" translate(-324.31, -109.84)" d="M 341.41617 111.4002 L 307.19556 111.4002 C 306.33283 111.4002 305.63086 110.69821 305.63086 109.83548 C 305.63086 108.97275 306.33286 108.27109 307.19556 108.27109 L 341.41617 108.27109 C 342.2789 108.27109 342.98056 108.97275 342.98056 109.83548 C 342.98056 110.69821 342.2789 111.40019000000001 341.41617 111.4002 Z" stroke-linecap="round" />
</g>
		<g transform="matrix(1 0 0 1 110.28 -59.63)"  >
<path style="stroke: none; stroke-width: 1; stroke-dasharray: none; stroke-linecap: butt; stroke-dashoffset: 0; stroke-linejoin: miter; stroke-miterlimit: 4; fill: rgb(63,61,86); fill-rule: nonzero; opacity: 1;" vector-effect="non-scaling-stroke"  transform=" translate(-324.31, -143.2)" d="M 341.41617 144.76383 L 307.19556 144.76383 C 306.33283 144.76383 305.63086 144.06183000000001 305.63086 143.19912000000002 C 305.63086 142.33641000000003 306.33286 141.63473000000002 307.19556 141.63473000000002 L 341.41617 141.63473000000002 C 342.2789 141.63473000000002 342.98056 142.33639000000002 342.98056 143.19912000000002 C 342.98056 144.06185000000002 342.2789 144.76383 341.41617 144.76383 Z" stroke-linecap="round" />
</g>
		<g transform="matrix(1 0 0 1 110.29 -76.3)"  >
<path style="stroke: none; stroke-width: 1; stroke-dasharray: none; stroke-linecap: butt; stroke-dashoffset: 0; stroke-linejoin: miter; stroke-miterlimit: 4; fill: rgb(63,61,86); fill-rule: nonzero; opacity: 1;" vector-effect="non-scaling-stroke"  transform=" translate(-324.31, -126.53)" d="M 359.77933 128.09296 L 288.83243000000004 128.09296 C 287.96970000000005 128.09296 287.26773000000003 127.39097000000001 287.26773000000003 126.52824000000001 C 287.26773000000003 125.66551000000001 287.96973 124.96385000000001 288.83243000000004 124.96385000000001 L 359.7793300000001 124.96385000000001 C 360.6420600000001 124.96385000000001 361.3437200000001 125.66551000000001 361.3437200000001 126.52824000000001 C 361.3437200000001 127.39097000000001 360.6420600000001 128.09294 359.7793300000001 128.09294 L 359.7793300000001 128.09296 Z" stroke-linecap="round" />
</g>
		<g transform="matrix(1 0 0 1 57.64 -105.46)"  >
<circle style="stroke: none; stroke-width: 1; stroke-dasharray: none; stroke-linecap: butt; stroke-dashoffset: 0; stroke-linejoin: miter; stroke-miterlimit: 4; fill: rgb(0,176,255); fill-rule: nonzero; opacity: 1;" vector-effect="non-scaling-stroke"  cx="0" cy="0" r="7" />
</g>
		<g transform="matrix(1 0 0 1 57.84 -105.46)"  >
<path style="stroke: none; stroke-width: 1; stroke-dasharray: none; stroke-linecap: butt; stroke-dashoffset: 0; stroke-linejoin: miter; stroke-miterlimit: 4; fill: rgb(255,255,255); fill-rule: nonzero; opacity: 1;" vector-effect="non-scaling-stroke"  transform=" translate(-271.86, -97.37)" d="M 271.41019 100.37249 C 271.28186 100.37249 271.16175 100.30795 271.09098 100.20014 L 268.98994 97.00128000000001 C 268.8741 96.82495000000002 268.92316999999997 96.58806000000001 269.0995 96.47229000000002 C 269.27607 96.35652000000002 269.51270999999997 96.40558000000001 269.62849 96.58184000000001 L 271.38761 99.26017000000002 L 274.07099 94.56468000000001 C 274.1757 94.38145000000002 274.40897 94.31778000000001 274.59214 94.42255000000002 C 274.77536999999995 94.52719000000002 274.83896999999996 94.76054000000002 274.73425999999995 94.94370000000002 L 271.74188999999996 100.17999000000002 C 271.67596999999995 100.29539000000001 271.55487999999997 100.36813000000002 271.42206999999996 100.37236000000001 L 271.4102 100.37249000000001 Z" stroke-linecap="round" />
</g>
		<g transform="matrix(1 0 0 1 57.64 -79.46)"  >
<circle style="stroke: none; stroke-width: 1; stroke-dasharray: none; stroke-linecap: butt; stroke-dashoffset: 0; stroke-linejoin: miter; stroke-miterlimit: 4; fill: rgb(0,176,255); fill-rule: nonzero; opacity: 1;" vector-effect="non-scaling-stroke"  cx="0" cy="0" r="7" />
</g>
		<g transform="matrix(1 0 0 1 57.84 -79.46)"  >
<path style="stroke: none; stroke-width: 1; stroke-dasharray: none; stroke-linecap: butt; stroke-dashoffset: 0; stroke-linejoin: miter; stroke-miterlimit: 4; fill: rgb(255,255,255); fill-rule: nonzero; opacity: 1;" vector-effect="non-scaling-stroke"  transform=" translate(-271.86, -123.37)" d="M 271.41019 126.37249 C 271.28186 126.37249 271.16175 126.30795 271.09098 126.20014 L 268.98994 123.00128000000001 C 268.8741 122.82495000000002 268.92316999999997 122.58806000000001 269.0995 122.47229000000002 C 269.27607 122.35652000000002 269.51270999999997 122.40558000000001 269.62849 122.58184000000001 L 271.38761 125.26017000000002 L 274.07099 120.56468000000001 C 274.1757 120.38145000000002 274.40897 120.31778000000001 274.59214 120.42255000000002 C 274.77536999999995 120.52719000000002 274.83896999999996 120.76054000000002 274.73425999999995 120.94370000000002 L 271.74188999999996 126.17999000000002 C 271.67596999999995 126.29539000000001 271.55487999999997 126.36813000000002 271.42206999999996 126.37236000000001 L 271.4102 126.37249000000001 Z" stroke-linecap="round" />
</g>
		<g transform="matrix(1 0 0 1 57.64 -53.46)"  >
<circle style="stroke: none; stroke-width: 1; stroke-dasharray: none; stroke-linecap: butt; stroke-dashoffset: 0; stroke-linejoin: miter; stroke-miterlimit: 4; fill: rgb(0,176,255); fill-rule: nonzero; opacity: 1;" vector-effect="non-scaling-stroke"  cx="0" cy="0" r="7" />
</g>
		<g transform="matrix(1 0 0 1 57.84 -53.46)"  >
<path style="stroke: none; stroke-width: 1; stroke-dasharray: none; stroke-linecap: butt; stroke-dashoffset: 0; stroke-linejoin: miter; stroke-miterlimit: 4; fill: rgb(255,255,255); fill-rule: nonzero; opacity: 1;" vector-effect="non-scaling-stroke"  transform=" translate(-271.86, -149.37)" d="M 271.41019 152.3725 C 271.28186 152.3725 271.16175 152.30796 271.09098 152.20015 L 268.98994 149.00130000000001 C 268.8741 148.82497 268.92316999999997 148.58808000000002 269.0995 148.47231000000002 C 269.27607 148.35654000000002 269.51270999999997 148.40560000000002 269.62849 148.58185000000003 L 271.38761 151.26018000000002 L 274.07099 146.56468 C 274.1757 146.38145 274.40897 146.31778 274.59214 146.42254 C 274.77536999999995 146.52718 274.83896999999996 146.76054 274.73425999999995 146.94369 L 271.74188999999996 152.17999 C 271.67596999999995 152.29539 271.55487999999997 152.36813 271.42206999999996 152.37236000000001 L 271.4102 152.37248000000002 L 271.4102 152.37250000000003 Z" stroke-linecap="round" />
</g>
</g>
</g>
<g transform="matrix(0.65 0 0 0.65 793.96 805.98)"  >
<g style="" vector-effect="non-scaling-stroke"   >
		<g transform="matrix(1 0 0 1 -16.14 -54.23)"  >
<path style="stroke: none; stroke-width: 1; stroke-dasharray: none; stroke-linecap: butt; stroke-dashoffset: 0; stroke-linejoin: miter; stroke-miterlimit: 4; fill: rgb(255,255,255); fill-rule: nonzero; opacity: 1;" vector-effect="non-scaling-stroke"  transform=" translate(-518.26, -394.79)" d="M 830.34191 635.03175 L 206.17014 635.03175 L 206.17014 154.54318 L 830.34191 154.54318 Z" stroke-linecap="round" />
</g>
		<g transform="matrix(1 0 0 1 -16.14 -54.23)"  >
<path style="stroke: none; stroke-width: 1; stroke-dasharray: none; stroke-linecap: butt; stroke-dashoffset: 0; stroke-linejoin: miter; stroke-miterlimit: 4; fill: rgb(229,229,229); fill-rule: nonzero; opacity: 1;" vector-effect="non-scaling-stroke"  transform=" translate(-518.26, -394.79)" d="M 830.34191 635.03175 L 206.17014 635.03175 L 206.17014 154.54318 L 830.34191 154.54318 Z M 215.39221999999995 625.80968 L 821.11983 625.80968 L 821.11983 163.76526 L 215.39222 163.76526 Z" stroke-linecap="round" />
</g>
		<g transform="matrix(1 0 0 1 -188.5 30.33)"  >
<path style="stroke: none; stroke-width: 1; stroke-dasharray: none; stroke-linecap: butt; stroke-dashoffset: 0; stroke-linejoin: miter; stroke-miterlimit: 4; fill: rgb(230,230,230); fill-rule: nonzero; opacity: 1;" vector-effect="non-scaling-stroke"  transform=" translate(-345.9, -479.34)" d="M 369.52542 516.73978 L 322.26811 516.73978 C 319.6036789403449 516.7368154494809 317.4444098386651 514.5777208114193 317.44122999999996 511.91329 L 317.44122999999996 446.76885 C 317.4444098386651 444.10441918858066 319.6036789403449 441.94532455051916 322.26811 441.94236 L 369.52542 441.94236 C 372.1898510596551 441.94532455051916 374.3491201613349 444.10441918858066 374.3523 446.76885 L 374.3523 511.91328999999996 C 374.3491201613349 514.5777208114193 372.1898510596551 516.7368154494809 369.52542 516.73978 Z" stroke-linecap="round" />
</g>
		<g transform="matrix(1 0 0 1 -102.32 -0.57)"  >
<path style="stroke: none; stroke-width: 1; stroke-dasharray: none; stroke-linecap: butt; stroke-dashoffset: 0; stroke-linejoin: miter; stroke-miterlimit: 4; fill: rgb(230,230,230); fill-rule: nonzero; opacity: 1;" vector-effect="non-scaling-stroke"  transform=" translate(-432.08, -448.45)" d="M 455.70505 516.73978 L 408.44774 516.73978 C 405.7833089403449 516.7368154494809 403.6240398386651 514.5777208114193 403.62086 511.91329 L 403.62086 384.97968 C 403.6240398386651 382.31524918858065 405.7833089403449 380.15615455051915 408.44774 380.15319 L 455.70505 380.15319 C 458.36948105965513 380.15615455051915 460.5287501613349 382.31524918858065 460.53193000000005 384.97968 L 460.53193000000005 511.91329 C 460.5287501613349 514.5777208114193 458.36948105965513 516.7368154494809 455.70505 516.73978 Z" stroke-linecap="round" />
</g>
		<g transform="matrix(1 0 0 1 -16.14 30.33)"  >
<path style="stroke: none; stroke-width: 1; stroke-dasharray: none; stroke-linecap: butt; stroke-dashoffset: 0; stroke-linejoin: miter; stroke-miterlimit: 4; fill: rgb(230,230,230); fill-rule: nonzero; opacity: 1;" vector-effect="non-scaling-stroke"  transform=" translate(-518.26, -479.34)" d="M 541.88468 516.73978 L 494.62737 516.73978 C 491.9629389403449 516.7368154494809 489.8036698386651 514.5777208114193 489.80048999999997 511.91329 L 489.80048999999997 446.76885 C 489.8036698386651 444.10441918858066 491.9629389403449 441.94532455051916 494.62737 441.94236 L 541.88468 441.94236 C 544.549111059655 441.94532455051916 546.7083801613348 444.1044191885807 546.71156 446.76885 L 546.71156 511.91328999999996 C 546.7083801613348 514.5777208114192 544.549111059655 516.7368154494808 541.88468 516.73978 Z" stroke-linecap="round" />
</g>
		<g transform="matrix(1 0 0 1 70.04 -12.76)"  >
<path style="stroke: none; stroke-width: 1; stroke-dasharray: none; stroke-linecap: butt; stroke-dashoffset: 0; stroke-linejoin: miter; stroke-miterlimit: 4; fill: rgb(230,230,230); fill-rule: nonzero; opacity: 1;" vector-effect="non-scaling-stroke"  transform=" translate(-604.44, -436.25)" d="M 628.06431 516.73978 L 580.807 516.73978 C 578.2033995790389 516.7958161331327 576.044971444218 514.735335761391 575.98012 512.13194 L 575.98012 360.37056 C 576.0449768561464 357.7671681790473 578.2034033855498 355.7066938115509 580.807 355.76273000000003 L 628.06431 355.76273000000003 C 630.6679066144502 355.7066938115509 632.8263331438536 357.7671681790473 632.8911899999999 360.37056 L 632.8911899999999 512.13194 C 632.826338555782 514.735335761391 630.6679104209611 516.7958161331327 628.06431 516.73978 Z" stroke-linecap="round" />
</g>
		<g transform="matrix(1 0 0 1 156.22 -34.71)"  >
<path style="stroke: none; stroke-width: 1; stroke-dasharray: none; stroke-linecap: butt; stroke-dashoffset: 0; stroke-linejoin: miter; stroke-miterlimit: 4; fill: rgb(242,242,242); fill-rule: nonzero; opacity: 1;" vector-effect="non-scaling-stroke"  transform=" translate(-690.62, -414.3)" d="M 714.24394 516.73978 L 666.98663 516.73978 C 664.322198940345 516.7368154494808 662.1629298386651 514.5777208114193 662.15975 511.91329 L 662.15975 316.68639 C 662.1629298386651 314.02195918858075 664.322198940345 311.8628645505192 666.98663 311.85990000000004 L 714.24394 311.85990000000004 C 716.908371059655 311.8628645505192 719.0676401613348 314.02195918858075 719.0708199999999 316.68639 L 719.0708199999999 511.91329 C 719.0676401613348 514.5777208114193 716.908371059655 516.7368154494808 714.24394 516.73978 Z" stroke-linecap="round" />
</g>
		<g transform="matrix(1 0 0 1 -188.5 -36.34)"  >
<circle style="stroke: none; stroke-width: 1; stroke-dasharray: none; stroke-linecap: butt; stroke-dashoffset: 0; stroke-linejoin: miter; stroke-miterlimit: 4; fill: rgb(63,61,86); fill-rule: nonzero; opacity: 1;" vector-effect="non-scaling-stroke"  cx="0" cy="0" r="9.75618" />
</g>
		<g transform="matrix(1 0 0 1 -102.32 -99.75)"  >
<circle style="stroke: none; stroke-width: 1; stroke-dasharray: none; stroke-linecap: butt; stroke-dashoffset: 0; stroke-linejoin: miter; stroke-miterlimit: 4; fill: rgb(63,61,86); fill-rule: nonzero; opacity: 1;" vector-effect="non-scaling-stroke"  cx="0" cy="0" r="9.75618" />
</g>
		<g transform="matrix(1 0 0 1 -16.14 -36.34)"  >
<circle style="stroke: none; stroke-width: 1; stroke-dasharray: none; stroke-linecap: butt; stroke-dashoffset: 0; stroke-linejoin: miter; stroke-miterlimit: 4; fill: rgb(63,61,86); fill-rule: nonzero; opacity: 1;" vector-effect="non-scaling-stroke"  cx="0" cy="0" r="9.75618" />
</g>
		<g transform="matrix(1 0 0 1 70.04 -130.65)"  >
<circle style="stroke: none; stroke-width: 1; stroke-dasharray: none; stroke-linecap: butt; stroke-dashoffset: 0; stroke-linejoin: miter; stroke-miterlimit: 4; fill: rgb(63,61,86); fill-rule: nonzero; opacity: 1;" vector-effect="non-scaling-stroke"  cx="0" cy="0" r="9.75618" />
</g>
		<g transform="matrix(1 0 0 1 156.22 -166.42)"  >
<circle style="stroke: none; stroke-width: 1; stroke-dasharray: none; stroke-linecap: butt; stroke-dashoffset: 0; stroke-linejoin: miter; stroke-miterlimit: 4; fill: rgb(63,61,86); fill-rule: nonzero; opacity: 1;" vector-effect="non-scaling-stroke"  cx="0" cy="0" r="9.75618" />
</g>
		<g transform="matrix(1 0 0 1 -16.33 -100.52)"  >
<polygon style="stroke: none; stroke-width: 1; stroke-dasharray: none; stroke-linecap: butt; stroke-dashoffset: 0; stroke-linejoin: miter; stroke-miterlimit: 4; fill: rgb(63,61,86); fill-rule: nonzero; opacity: 1;" vector-effect="non-scaling-stroke"  points="0.39,66.36 -86,1.66 -171.2,65.48 -173.15,62.88 -86,-2.4 -0.02,61.99 85.41,-31.5 85.76,-31.64 171.93,-66.36 173.15,-63.35 87.31,-28.76 0.39,66.36 " />
</g>
		<g transform="matrix(1 0 0 1 265.93 251.93)"  >
<polygon style="stroke: none; stroke-width: 1; stroke-dasharray: none; stroke-linecap: butt; stroke-dashoffset: 0; stroke-linejoin: miter; stroke-miterlimit: 4; fill: rgb(255,182,182); fill-rule: nonzero; opacity: 1;" vector-effect="non-scaling-stroke"  points="10.83,28.31 -3.85,28.31 -10.83,-28.31 10.83,-28.31 10.83,28.31 " />
</g>
		<g transform="matrix(1 0 0 1 256.85 284.96)"  >
<path style="stroke: none; stroke-width: 1; stroke-dasharray: none; stroke-linecap: butt; stroke-dashoffset: 0; stroke-linejoin: miter; stroke-miterlimit: 4; fill: rgb(47,46,65); fill-rule: nonzero; opacity: 1;" vector-effect="non-scaling-stroke"  transform=" translate(-791.24, -733.97)" d="M 814.90974 743.48659 L 767.57731 743.48484 L 767.57731 742.88616 C 767.5780223697284 732.7117048264673 775.8259548165142 724.4639022112738 786.00041 724.46335 L 786.00158 724.46335 L 814.91058 724.46452 Z" stroke-linecap="round" />
</g>
		<g transform="matrix(1 0 0 1 257.18 154.5)"  >
<path style="stroke: none; stroke-width: 1; stroke-dasharray: none; stroke-linecap: butt; stroke-dashoffset: 0; stroke-linejoin: miter; stroke-miterlimit: 4; fill: rgb(47,46,65); fill-rule: nonzero; opacity: 1;" vector-effect="non-scaling-stroke"  transform=" translate(-791.59, -603.52)" d="M 758.70505 489.60686 L 767.03871 622.389 L 795.0198800000001 715.85355 L 816.69833 717.42331 L 805.81248 603.51508 L 810.5854800000001 527.8685 C 810.5854800000001 527.8685 833.21248 511.00180000000006 820.7016400000001 490.69858000000005 Z" stroke-linecap="round" />
</g>
		<g transform="matrix(1 0 0 1 275.51 251.93)"  >
<polygon style="stroke: none; stroke-width: 1; stroke-dasharray: none; stroke-linecap: butt; stroke-dashoffset: 0; stroke-linejoin: miter; stroke-miterlimit: 4; fill: rgb(255,182,182); fill-rule: nonzero; opacity: 1;" vector-effect="non-scaling-stroke"  points="10.83,28.31 -3.85,28.31 -10.83,-28.31 10.83,-28.31 10.83,28.31 " />
</g>
		<g transform="matrix(1 0 0 1 266.43 284.96)"  >
<path style="stroke: none; stroke-width: 1; stroke-dasharray: none; stroke-linecap: butt; stroke-dashoffset: 0; stroke-linejoin: miter; stroke-miterlimit: 4; fill: rgb(47,46,65); fill-rule: nonzero; opacity: 1;" vector-effect="non-scaling-stroke"  transform=" translate(-800.82, -733.97)" d="M 824.4886 743.48659 L 777.15617 743.48484 L 777.15617 742.88616 C 777.1568768482069 732.7117025391273 785.404812529261 724.4638966897164 795.57927 724.46335 L 795.58044 724.46335 L 824.48944 724.46452 Z" stroke-linecap="round" />
</g>
		<g transform="matrix(1 0 0 1 266.76 154.5)"  >
<path style="stroke: none; stroke-width: 1; stroke-dasharray: none; stroke-linecap: butt; stroke-dashoffset: 0; stroke-linejoin: miter; stroke-miterlimit: 4; fill: rgb(47,46,65); fill-rule: nonzero; opacity: 1;" vector-effect="non-scaling-stroke"  transform=" translate(-801.17, -603.52)" d="M 768.2839 489.60686 L 776.61757 622.389 L 804.59874 715.85355 L 826.27719 717.42331 L 815.39133 603.51508 L 820.16438 527.8685 C 820.16438 527.8685 842.79138 511.00180000000006 830.2805400000001 490.69858000000005 Z" stroke-linecap="round" />
</g>
		<g transform="matrix(1 0 0 1 275.06 -27.6)"  >
<path style="stroke: none; stroke-width: 1; stroke-dasharray: none; stroke-linecap: butt; stroke-dashoffset: 0; stroke-linejoin: miter; stroke-miterlimit: 4; fill: rgb(63,61,86); fill-rule: nonzero; opacity: 1;" vector-effect="non-scaling-stroke"  transform=" translate(-809.46, -421.41)" d="M 813.4614 510.1689 C 788.4634 510.1689 759.04159 494.89208 757.3364700000001 493.99464 L 756.8623200000001 493.745 L 814.2348900000001 347.37923 L 842.649 333.95574 C 847.1041277075178 331.8511507473894 852.3492480178722 332.3216230858035 856.3587217973259 335.18546295988347 C 860.3681955767795 338.04930283396345 862.5144682175868 342.8582679037708 861.96866 347.75516 L 850.69318 448.909 L 838.9230699999999 501.2998 L 838.7979499999999 501.42257 C 832.30223 507.84084 823.21682 510.1689 813.4614 510.1689 Z" stroke-linecap="round" />
</g>
		<g transform="matrix(1 0 0 1 214.69 -25.44)"  >
<path style="stroke: none; stroke-width: 1; stroke-dasharray: none; stroke-linecap: butt; stroke-dashoffset: 0; stroke-linejoin: miter; stroke-miterlimit: 4; fill: rgb(255,182,182); fill-rule: nonzero; opacity: 1;" vector-effect="non-scaling-stroke"  transform=" translate(-749.09, -423.58)" d="M 721.78115 413.27726 C 724.7904414179677 411.36909583008924 728.4903698318875 410.89186725580845 731.8853576191187 411.9739870560783 C 735.28034540635 413.05610685634804 738.0216498153409 415.5864166234493 739.3716400000001 418.88406000000003 L 782.09531 416.55019000000004 L 770.88538 435.75209000000007 L 732.03287 435.0245100000001 C 726.2149871659149 436.9678920716806 719.8630386676003 434.25269118598163 717.2475497481792 428.70438403333975 C 714.632060828758 423.1560768806979 716.579749131821 416.5284018849658 721.78115 413.27726000000007 Z" stroke-linecap="round" />
</g>
		<g transform="matrix(1 0 0 1 275.32 -51.39)"  >
<path style="stroke: none; stroke-width: 1; stroke-dasharray: none; stroke-linecap: butt; stroke-dashoffset: 0; stroke-linejoin: miter; stroke-miterlimit: 4; fill: rgb(63,61,86); fill-rule: nonzero; opacity: 1;" vector-effect="non-scaling-stroke"  transform=" translate(-809.72, -397.62)" d="M 806.094 443.335 L 763.27855 442.24228999999997 L 763.83105 413.92082999999997 L 784.07678 407.47682999999995 L 817.28561 360.89917999999994 C 821.8124452626752 354.54943066472714 829.4318155440255 351.16067283392863 837.1789418262744 352.0515086678997 C 844.9260681085232 352.9423445018708 851.5774026863143 357.97207923189427 854.5448396574164 365.18358891702496 C 857.5122766285186 372.3950986021556 856.3271517986873 380.64942851183577 851.45061 386.73472999999996 Z" stroke-linecap="round" />
</g>
		<g transform="matrix(1 0 0 1 296.48 -148.9)"  >
<circle style="stroke: none; stroke-width: 1; stroke-dasharray: none; stroke-linecap: butt; stroke-dashoffset: 0; stroke-linejoin: miter; stroke-miterlimit: 4; fill: rgb(255,182,182); fill-rule: nonzero; opacity: 1;" vector-effect="non-scaling-stroke"  cx="0" cy="0" r="28.44921" />
</g>
		<g transform="matrix(1 0 0 1 292.92 -159.45)"  >
<path style="stroke: none; stroke-width: 1; stroke-dasharray: none; stroke-linecap: butt; stroke-dashoffset: 0; stroke-linejoin: miter; stroke-miterlimit: 4; fill: rgb(47,46,65); fill-rule: nonzero; opacity: 1;" vector-effect="non-scaling-stroke"  transform=" translate(-827.32, -289.57)" d="M 794.891 276.40569 C 797.7625154054297 273.4618300232746 801.4934231966413 271.50414946200624 805.54751 270.81401 C 809.49877 269.9639 813.8332 269.70047999999997 816.99424 267.22194 C 820.58631 264.36024000000003 822.16683 258.92427000000004 826.57309 257.71494 C 828.4899420013096 257.32972082345117 830.4762742483879 257.4873024705817 832.30841 258.16994 C 839.3491476043441 260.2937830078748 845.600314989733 264.4612290916466 850.2687599999999 270.14351 C 851.369063856593 271.77182397649983 852.7713360235001 273.1740961434069 854.39965 274.2744 C 855.3734259327139 274.68671333968246 856.3246665590814 275.1503435053081 857.24937 275.66334 C 858.2638545129589 276.4639074924524 859.0623093460729 277.50519142590554 859.57224 278.69265 C 862.7491922798506 285.1060189139908 863.4812999947029 292.4570071749283 861.63166 299.37099 C 860.53012 303.45399000000003 858.54246 307.23764 857.36908 311.34456 C 856.1957000000001 315.45148 850.7688400000001 323.26416 849.49964 321.32445 C 848.2304399999999 319.38474 846.60206 317.57672 845.90757 315.33766 C 844.5527199999999 310.93337 845.77626 306.50120000000004 842.33028 303.442 C 840.19895 301.55019 836.34349 300.281 834.89466 302.72358 C 834.31996 303.6695 834.3558400000001 304.86686000000003 833.86495 305.84866000000005 C 832.8951000000001 307.76444000000004 830.09325 308.14760000000007 828.23736 307.04602000000006 C 826.4485773945896 305.81109095234416 825.1914796991915 303.9468297435829 824.71713 301.82556000000005 C 821.92727 292.39038000000005 817.1738 286.45150000000007 807.08013 290.48656000000005 C 803.32041 291.9952400000001 798.89013 293.0129600000001 795.27421 290.42671000000007 C 790.50869 287.02624 791.47854 280.28511 794.891 276.40569 Z" stroke-linecap="round" />
</g>
		<g transform="matrix(1 0 0 1 172.98 -19.15)"  >
<path style="stroke: none; stroke-width: 1; stroke-dasharray: none; stroke-linecap: butt; stroke-dashoffset: 0; stroke-linejoin: miter; stroke-miterlimit: 4; fill: rgb(0,176,255); fill-rule: nonzero; opacity: 1;" vector-effect="non-scaling-stroke"  transform=" translate(-707.38, -429.87)" d="M 731.00694 532.30542 L 683.74962 532.30542 C 681.085188940345 532.3024554494808 678.9259198386652 530.1433608114193 678.9227400000001 527.47893 L 678.9227400000001 332.252 C 678.9259253478555 329.58757309388847 681.0851928390596 327.42848453959516 683.74962 327.42552 L 731.0069400000001 327.42552 C 733.6713671609406 327.42848453959516 735.8306346521447 329.58757309388847 735.8338200000001 332.252 L 735.8338200000001 527.47893 C 735.8306401613349 530.1433608114194 733.6713710596551 532.3024554494809 731.00694 532.30542 Z" stroke-linecap="round" />
</g>
		<g transform="matrix(1 0 0 1 213.49 -8.68)"  >
<path style="stroke: none; stroke-width: 1; stroke-dasharray: none; stroke-linecap: butt; stroke-dashoffset: 0; stroke-linejoin: miter; stroke-miterlimit: 4; fill: rgb(255,182,182); fill-rule: nonzero; opacity: 1;" vector-effect="non-scaling-stroke"  transform=" translate(-747.9, -440.34)" d="M 720.58379 430.04025 C 723.5930847134417 428.13209300041234 727.2930116328099 427.6548684371981 730.6879985913056 428.7369873581437 C 734.0829855498012 429.8191062790893 736.8242918934864 432.3494110082617 738.17429 435.64705000000004 L 780.89795 433.31318000000005 L 769.688 452.51509 L 730.8354899999999 451.78751 C 725.0176112511499 453.7308650479707 718.6656848083328 451.0156580201893 716.0502021758809 445.4673616530026 C 713.4347195434291 439.9190652858159 715.3823914240772 433.29140408566354 720.58377 430.04025 Z" stroke-linecap="round" />
</g>
		<g transform="matrix(1 0 0 1 274.12 -34.63)"  >
<path style="stroke: none; stroke-width: 1; stroke-dasharray: none; stroke-linecap: butt; stroke-dashoffset: 0; stroke-linejoin: miter; stroke-miterlimit: 4; fill: rgb(63,61,86); fill-rule: nonzero; opacity: 1;" vector-effect="non-scaling-stroke"  transform=" translate(-808.52, -414.39)" d="M 804.89662 460.098 L 762.0811699999999 459.00530000000003 L 762.63366 430.68383000000006 L 782.8793999999999 424.23983000000004 L 816.0882199999999 377.66217000000006 C 820.615055262675 371.31242066472726 828.2344255440254 367.92366283392874 835.9815518262742 368.81449866789984 C 843.728678108523 369.70533450187094 850.3800126863141 374.7350692318944 853.3474496574163 381.9465789170251 C 856.3148866285185 389.1580886021557 855.1297617986871 397.4124185118359 850.2532199999998 403.4977200000001 Z" stroke-linecap="round" />
</g>
</g>
</g>
</svg>