<svg xmlns="http://www.w3.org/2000/svg" width="428.04004" height="406.68778" viewBox="0 0 428.04004 406.68778" xmlns:xlink="http://www.w3.org/1999/xlink"><path d="M326.65781,67.37236v106c0,9.37402-7.62598,17-17,17h-106c-9.37402,0-17-7.62598-17-17V67.37236c0-9.37402,7.62598-17,17-17h106c9.37402,0,17,7.62598,17,17Zm-17,121c8.28427,0,15-6.71573,15-15v-53.44094c0-37.31184-30.24722-67.55906-67.55905-67.55906h-53.44095c-8.28427,0-15,6.71573-15,15v106c0,8.28427,6.71573,15,15,15h106Z" fill="#e6e6e6"/><g><path id="b-261" d="M213.46512,148.67319c5.64194,.91399,10.68677-1.25626,11.26784-4.84689s-3.52132-7.2413-9.16537-8.15485c-2.24957-.39584-4.56122-.24722-6.74156,.43347l-23.95399-3.57069-1.43602,11.27663,23.76685,2.32285c1.85466,1.33447,4.00198,2.20529,6.26225,2.53951l.00002-.00002Z" fill="#ffb6b6"/><path d="M127.86174,65.6504l-13.08166,7.25056s17.91828,54.1102,23.99198,63.33571,65.09514,15.8941,65.09514,15.8941l.8176-19.8326-37.91864-17.09318-38.90441-49.55461v.00002Z" fill="#2f2e41"/></g><g><polygon points="109.58914 396.12967 123.17653 396.12833 126.65781 343.37235 109.58641 343.72062 109.58914 396.12967" fill="#ffb6b6"/><path d="M156.14127,395.82145h0c.42307,.71252,.64629,3.01221,.64629,3.84082h0c0,2.54691-2.06464,4.61163-4.61162,4.61163h-42.07858c-1.73748,0-3.14607-1.40851-3.14607-3.14606v-1.75186s-2.08159-5.26526,2.20403-11.755c0,0,5.32645,5.08157,13.28554-2.87753l2.34706-4.25189,16.98951,12.42526,9.41704,1.15915c2.06026,.25357,3.88686-.03934,4.94662,1.74551h.00017l.00002-.00003Z" fill="#2f2e41"/></g><g><polygon points="94.58914 396.12967 108.17653 396.12833 114.64014 343.71921 94.58641 343.72062 94.58914 396.12967" fill="#ffb6b6"/><path d="M141.14127,395.82145h0c.42307,.71252,.64629,3.01221,.64629,3.84082h0c0,2.54691-2.06464,4.61163-4.61162,4.61163h-42.07858c-1.73748,0-3.14607-1.40851-3.14607-3.14606v-1.75186s-2.08159-5.26526,2.20403-11.755c0,0,5.32645,5.08157,13.28554-2.87753l2.34706-4.25189,16.98951,12.42526,9.41704,1.15915c2.06026,.25357,3.88686-.03934,4.94662,1.74551h.00017l.00002-.00003Z" fill="#2f2e41"/></g><circle cx="129.54844" cy="30.21052" r="22.51969" fill="#ffb6b6"/><path d="M155.15781,169.87236l-61.66929-7.6693s-5.33071,39.66928,2.66929,55.66928l-2,48s-10.81839,90.38583-2.4092,104.1929l35.9092-.6929,1.5-85.5,26-114v.00002Z" fill="#2f2e41"/><path d="M136.65781,66.37236l-23-16-4.66142,8s-18.33858,35-20.33858,46,6,59,6,59l58,11s4-20,2-24-17.5-74.5-17.5-74.5l-.5-9.5Z" fill="#00b0ff"/><path d="M130.15781,76.87236l-20-22.77559s-29,31.77559-28,45.77559-5,108-5,108h45.8457s17.1543-40,20.1543-61-13-70-13-70Z" fill="#2f2e41"/><path d="M137.15781,75.87236s20.5,66.5,20.5,72.5-4.5,60.5-4.5,60.5h-8.25591l5.75591-63.5-13.5-69.5Z" fill="#2f2e41"/><path d="M138.15781,17.87236l2,8-3,12h-4.58661s-8.41339-12-11.41339,1v7.24016l-7,6.75984s-2-5-8-9-13-27,5-32c0,0,13.30982-14.90699,25.94482-11.31329,1.33356,.3793,.2531,2.98253,1.55518,3.81329,.77975,.4975,3.95741-.93485,4.71646-.25293,.75688,.67999,.55428,2.37281,1.28354,3.25293,1.60535,1.93742,4.08276,3.46305,5.5,6.5,0,0,2,1-2,2s-10,2-10,2Z" fill="#2f2e41"/><path id="c-262" d="M123.81856,195.15035c3.84249,4.23108,9.14026,5.67809,11.83255,3.23227s1.75937-7.85753-2.08505-12.0896c-1.5125-1.71159-3.4129-3.03612-5.54222-3.86269l-16.50717-17.72163-8.15113,7.92358,17.13854,16.62917c.61867,2.19951,1.75521,4.21883,3.31448,5.8889Z" fill="#ffb6b6"/><path d="M108.61844,76.87236l-14.74907-2.48301s-19.71156,53.48301-20.71156,64.48301,41,53,41,53l13-15-19-37,.46063-63Z" fill="#2f2e41"/><path d="M428.04004,404.81614h0c0,.46393-.3761,.84003-.84003,.84003H.84003c-.46393,0-.84003-.3761-.84003-.84003H0c0-.46393,.37609-.84003,.84003-.84003H427.20001c.46393,0,.84003,.3761,.84003,.84003Z" fill="#e6e6e6"/><g><path d="M235.70119,111.55896c-.06361,5.79864-10.01833,11.89083-19.13048,11.79088s-18.90891-8.40891-18.84531-14.20756c.06361-5.79864,1.69856-16.67849,10.81071-16.57854s27.22867,13.19657,27.16505,18.99521h.00002Z" fill="#ff6884"/><path d="M219.21487,159.69681l2.45532-33.54241s33.0748-6.63762,12.00934-46.37107l-27.97638-2.30699s-29.87663,34.17436,5.46219,49.06286l1.11975,33.13811c-7.73026,.38264-13.50699,2.09886-13.53033,4.22801-.02727,2.48514,7.78519,4.58566,17.44958,4.69167s17.52106-1.82265,17.54829-4.30779c.02444-2.22942-6.26682-4.14436-14.53778-4.59241l.00002,.00002Z" fill="#f2f2f2" isolation="isolate" opacity=".28"/><path d="M201.72502,167.527c-2.65265-.96936-3.98595-2.18752-3.97009-3.63216,.0423-3.85857,9.79778-4.9006,13.49774-5.15698l-1.06529-31.53011c-9.3699-4.08741-14.99242-9.94226-16.71628-17.40945-3.58313-15.52556,10.86249-32.27428,11.4791-32.98003l.33217-.37976,29.02496,2.39284,.25587,.4834c7.42407,14.00286,9.07076,25.5706,4.89413,34.38231-4.45921,9.40714-14.06956,12.53593-16.84329,13.26074l-2.32808,31.80389c6.91618,.48953,14.50369,2.18927,14.46672,5.53822-.0417,3.77872-9.65018,5.39436-18.55946,5.2973-4.75529-.05234-9.23248-.58115-12.6077-1.48808-.67879-.18254-1.29913-.37701-1.86047-.58215l-.00003,.00002Zm4.4119-89.01126c-2.10663,2.56249-13.78905,17.53971-10.71558,30.83804,1.60849,6.95923,7.03621,12.43098,16.13228,16.2634l.58961,.24873,1.1741,34.76183-.98305,.04832c-8.93925,.44304-5.45479,2.78075-5.46339,3.55117-.00333,.28368-6.32236,.99104-2.76624,1.95057,3.21745,.86488,7.51865,1.36888,12.11058,1.41872,10.88542,.11948,16.52609-2.27238,16.53764-3.31828,.00896-.83682-3.88834-3.05641-13.59196-3.58308l-1.01762-.05476,2.58521-35.3157,.74422-.15017c.11423-.02376,11.49796-2.43588,16.18582-12.35211,3.83369-8.10941,2.28346-18.90265-4.60776-32.08748l-18.4347,3.05113c-3.74857,.62042-7.37618-1.63436-8.47916-5.27031h0Z" fill="#3f3d56"/></g><g><path d="M341.41617,111.4002h-34.22061c-.86273,0-1.5647-.70199-1.5647-1.56472s.702-1.56439,1.5647-1.56439h34.22061c.86273,0,1.56439,.70166,1.56439,1.56439s-.70166,1.56471-1.56439,1.56472Z" fill="#3f3d56"/><path d="M341.41617,144.76383h-34.22061c-.86273,0-1.5647-.702-1.5647-1.56471s.702-1.56439,1.5647-1.56439h34.22061c.86273,0,1.56439,.70166,1.56439,1.56439s-.70166,1.56471-1.56439,1.56471Z" fill="#3f3d56"/><path d="M359.77933,128.09296h-70.9469c-.86273,0-1.5647-.70199-1.5647-1.56472s.702-1.56439,1.5647-1.56439h70.9469c.86273,0,1.56439,.70166,1.56439,1.56439s-.70166,1.5647-1.56439,1.5647v.00002Z" fill="#3f3d56"/></g><g><circle cx="271.65781" cy="97.37236" r="7" fill="#00b0ff"/><path d="M271.41019,100.37249c-.12833,0-.24844-.06454-.31921-.17235l-2.10104-3.19886c-.11584-.17633-.06677-.41322,.10956-.52899,.17657-.11577,.41321-.06671,.52899,.10955l1.75912,2.67833,2.68338-4.69549c.10471-.18323,.33798-.2469,.52115-.14213,.18323,.10464,.24683,.33799,.14212,.52115l-2.99237,5.23629c-.06592,.1154-.18701,.18814-.31982,.19237l-.01187,.00013Z" fill="#fff"/></g><g><circle cx="271.65781" cy="123.37236" r="7" fill="#00b0ff"/><path d="M271.41019,126.37249c-.12833,0-.24844-.06454-.31921-.17235l-2.10104-3.19886c-.11584-.17633-.06677-.41322,.10956-.52899,.17657-.11577,.41321-.06671,.52899,.10955l1.75912,2.67833,2.68338-4.69549c.10471-.18323,.33798-.2469,.52115-.14213,.18323,.10464,.24683,.33799,.14212,.52115l-2.99237,5.23629c-.06592,.1154-.18701,.18814-.31982,.19237l-.01187,.00013Z" fill="#fff"/></g><g><circle cx="271.65781" cy="149.37236" r="7" fill="#00b0ff"/><path d="M271.41019,152.3725c-.12833,0-.24844-.06454-.31921-.17235l-2.10104-3.19885c-.11584-.17633-.06677-.41322,.10956-.52899,.17657-.11577,.41321-.06671,.52899,.10954l1.75912,2.67833,2.68338-4.6955c.10471-.18323,.33798-.2469,.52115-.14214,.18323,.10464,.24683,.338,.14212,.52115l-2.99237,5.2363c-.06592,.1154-.18701,.18814-.31982,.19237l-.01187,.00012v.00002Z" fill="#fff"/></g></svg>